<?xml version="1.0" standalone="no"?>
<!DOCTYPE svg PUBLIC "-//W3C//DTD SVG 20010904//EN"
 "http://www.w3.org/TR/2001/REC-SVG-20010904/DTD/svg10.dtd">
<svg version="1.0" xmlns="http://www.w3.org/2000/svg"
 width="1014.000000pt" height="770.000000pt" viewBox="0 0 1014.000000 770.000000"
 preserveAspectRatio="xMidYMid meet">

<g transform="translate(0.000000,770.000000) scale(0.100000,-0.100000)"
fill="#000000" stroke="none">
<path d="M3572 7687 c-12 -14 -16 -296 -5 -336 5 -19 13 -21 94 -21 l89 0 0
69 c0 65 -2 70 -22 73 -17 2 -24 11 -26 31 -3 23 0 27 22 27 23 0 26 4 26 38
0 46 23 71 66 73 56 3 64 0 64 -26 0 -21 -5 -25 -30 -25 -16 0 -31 -3 -31 -7
-8 -48 -6 -53 22 -53 18 0 29 -5 29 -14 0 -30 -13 -46 -37 -46 -23 0 -24 -2
-21 -67 l3 -68 54 -3 c36 -2 57 1 63 10 11 17 8 318 -4 341 -8 15 -27 17 -177
17 -126 0 -171 -3 -179 -13z"/>
<path d="M4797 6856 c-69 -25 -99 -70 -99 -149 0 -154 215 -204 284 -67 10 19
18 50 18 68 l0 32 -75 0 -75 0 0 -29 c0 -28 2 -30 48 -33 l47 -3 -27 -27 c-37
-38 -98 -39 -133 -3 -69 68 7 190 97 156 21 -8 29 -6 43 9 22 24 13 37 -33 50
-46 12 -48 12 -95 -4z"/>
<path d="M5100 6770 c0 -27 -3 -30 -30 -30 -20 0 -30 -5 -30 -15 0 -10 10 -15
30 -15 27 0 30 -3 30 -30 0 -20 5 -30 15 -30 10 0 15 10 15 30 0 27 3 30 30
30 20 0 30 5 30 15 0 10 -10 15 -30 15 -27 0 -30 3 -30 30 0 20 -5 30 -15 30
-10 0 -15 -10 -15 -30z"/>
<path d="M1924 6420 c-12 -4 -31 -21 -43 -36 -19 -24 -21 -39 -21 -141 l0
-115 34 -34 34 -34 114 0 c163 0 189 25 187 182 -1 160 -29 188 -189 187 -52
0 -105 -4 -116 -9z m251 -45 c24 -23 25 -31 25 -133 0 -104 -1 -110 -26 -133
-22 -20 -38 -24 -106 -28 -109 -5 -155 10 -174 54 -16 40 -19 171 -4 211 18
47 36 53 153 54 101 0 109 -1 132 -25z"/>
<path d="M2127 6354 c-9 -10 2 -24 19 -24 8 0 14 7 14 15 0 15 -21 21 -33 9z"/>
<path d="M1983 6308 c-29 -33 -35 -57 -23 -94 13 -38 61 -65 103 -57 63 12 89
102 42 148 -32 33 -93 34 -122 3z m102 -23 c30 -29 32 -58 5 -85 -41 -41 -110
-15 -110 42 0 33 31 68 60 68 12 0 32 -11 45 -25z"/>
<path d="M7605 6355 c-22 -8 -59 -34 -81 -58 -86 -91 -76 -239 21 -313 20 -15
37 -25 39 -23 10 10 36 144 36 183 0 45 13 66 42 66 27 0 32 -24 18 -76 -11
-39 -11 -47 2 -61 53 -52 119 88 73 154 -22 31 -75 39 -118 18 -47 -22 -61
-52 -53 -114 5 -42 4 -51 -8 -51 -18 0 -46 49 -46 80 0 31 25 74 60 103 60 51
149 45 205 -13 26 -27 30 -39 29 -83 -1 -99 -67 -165 -136 -139 -18 6 -32 11
-32 9 -1 -1 -9 -24 -18 -51 l-16 -48 68 4 c85 5 142 39 178 110 90 176 -77
369 -263 303z"/>
<path d="M3877 6286 c-28 -8 -62 -27 -81 -45 l-32 -31 -43 15 c-95 33 -229 10
-320 -54 l-32 -23 -19 25 c-49 62 -165 85 -245 48 -72 -32 -125 -113 -125
-190 0 -83 72 -180 150 -201 39 -10 41 -13 35 -38 -40 -159 -29 -362 29 -517
l25 -64 -60 -32 c-33 -18 -78 -52 -99 -77 -39 -44 -80 -133 -80 -175 0 -12
-14 -105 -30 -207 -16 -102 -30 -190 -30 -197 0 -8 10 -9 37 -1 21 6 61 8 91
6 48 -4 58 -9 98 -52 l45 -46 -10 -55 c-11 -58 -58 -202 -73 -222 -6 -7 2 -39
19 -84 l28 -72 80 -2 c44 0 107 -6 139 -13 68 -13 106 -7 221 37 90 35 144 70
179 116 14 18 47 49 74 68 26 20 77 72 112 116 l65 80 12 -77 c20 -119 83
-480 95 -546 l11 -58 41 8 c23 4 61 8 86 10 60 3 766 151 805 169 72 32 75 31
298 -139 115 -87 211 -165 214 -173 3 -8 -1 -21 -8 -28 -8 -8 -136 -50 -284
-94 -149 -43 -388 -113 -532 -156 -145 -42 -273 -75 -285 -73 -17 2 -53 49
-144 187 -109 163 -123 181 -133 163 -19 -36 -89 -60 -206 -72 -166 -16 -154
-9 -141 -77 15 -85 14 -160 -4 -176 -13 -13 -25 -13 -85 0 -38 8 -106 29 -150
46 l-80 32 3 58 c5 74 -5 87 -61 76 -73 -13 -117 -37 -117 -61 0 -24 -46 -78
-67 -78 -40 0 18 -32 325 -180 970 -469 1161 -558 1210 -569 73 -15 187 -14
254 4 56 14 132 50 1203 567 176 85 487 235 690 333 204 98 386 190 407 203
74 48 72 121 -6 167 -111 63 -2244 1087 -2293 1100 -32 8 -94 15 -140 15 -93
0 -94 -1 -163 -100 -49 -71 -102 -124 -139 -139 -26 -11 -29 -18 -34 -78 -4
-37 -10 -70 -14 -74 -5 -5 -61 -14 -126 -20 -106 -11 -120 -14 -134 -35 -8
-13 -25 -91 -37 -174 -20 -137 -24 -152 -51 -181 -41 -43 -81 -59 -116 -47
-69 24 -82 209 -24 336 14 30 25 56 25 58 0 2 -12 4 -26 4 -21 0 -24 3 -15 13
6 8 8 17 5 20 -4 3 -2 20 4 36 10 28 9 30 -11 28 -19 -2 -22 2 -19 28 1 17 18
68 37 115 33 82 35 85 67 85 18 0 47 -4 65 -7 31 -7 32 -6 38 30 22 152 61
247 109 271 15 7 24 17 19 21 -11 12 -113 47 -203 71 -41 11 -92 28 -113 37
-32 15 -37 21 -32 42 44 204 45 345 5 497 l-21 82 36 32 c46 40 65 87 65 156
0 139 -127 235 -263 199z m-399 -603 c42 -13 93 -18 192 -18 99 0 150 5 192
18 31 9 59 17 62 17 10 0 7 -82 -4 -119 -15 -53 -58 -109 -112 -143 -49 -32
-56 -45 -38 -79 22 -39 -46 -119 -118 -139 -72 -19 -176 -8 -276 29 l-28 11
46 43 46 43 0 87 c0 47 -5 98 -11 114 -25 65 -32 153 -12 153 3 0 30 -8 61
-17z"/>
<path d="M6145 5457 c-3 -7 -4 -89 -3 -182 l3 -170 178 -3 177 -2 -2 182 -3
183 -173 3 c-135 2 -174 0 -177 -11z m110 -67 c8 -27 -1 -40 -30 -40 -27 0
-41 26 -24 46 17 20 47 17 54 -6z m-5 -151 l0 -90 -27 3 c-27 3 -28 5 -31 77
-4 90 0 101 33 101 25 0 25 0 25 -91z m90 79 c0 -9 3 -9 12 0 18 18 56 14 78
-8 16 -16 20 -33 20 -90 l0 -70 -30 0 c-29 0 -29 1 -32 63 -3 54 -5 62 -23 62
-17 0 -21 -8 -25 -60 -5 -57 -7 -60 -32 -63 l-28 -3 0 90 0 91 30 0 c17 0 30
-5 30 -12z"/>
<path d="M2713 3961 c-111 -55 -213 -111 -228 -125 -47 -47 -26 -111 50 -151
34 -19 37 -19 46 -3 38 68 86 100 222 148 85 30 178 76 176 88 0 4 -15 37 -32
74 l-32 67 -202 -98z"/>
<path d="M5097 3883 c-10 -3 -14 -10 -11 -16 5 -9 4 -9 -5 -1 -9 8 -33 6 -89
-8 -42 -11 -84 -21 -92 -23 -8 -2 -36 -7 -62 -11 -44 -6 -48 -9 -43 -32 2 -13
1 -21 -3 -17 -4 3 -7 12 -7 18 0 16 -30 13 -140 -14 -40 -10 -68 -15 -94 -18
-7 0 -11 -7 -7 -16 3 -8 1 -15 -4 -15 -6 0 -10 5 -10 10 0 6 -13 10 -30 10
-16 0 -30 -3 -30 -7 0 -5 -10 -8 -22 -9 -31 -2 -102 -15 -108 -20 -2 -3 1 -14
8 -24 7 -11 12 -25 12 -32 0 -7 -8 2 -17 20 -14 29 -20 32 -42 27 -14 -4 -28
-8 -29 -10 -5 -5 63 -106 92 -137 12 -14 26 -33 29 -42 7 -17 43 -21 66 -7 9
6 10 11 2 15 -6 4 -11 15 -10 24 0 14 2 14 6 2 13 -36 22 -38 83 -23 33 9 60
19 60 23 0 5 8 6 18 4 12 -4 425 96 537 129 6 2 45 11 88 21 42 10 77 21 77
25 0 16 -13 19 -37 10 -33 -12 -52 0 -24 15 21 11 18 15 -54 72 -82 64 -82 64
-108 57z m-236 -100 c13 -16 12 -17 -3 -4 -17 13 -22 21 -14 21 2 0 10 -8 17
-17z m54 -39 c-11 -8 -13 -14 -5 -19 8 -5 8 -10 0 -20 -8 -10 -7 -16 7 -24 10
-6 13 -11 7 -11 -6 0 -17 7 -25 16 -10 13 -10 17 0 24 9 5 10 10 2 14 -16 11
-13 26 5 26 14 0 15 2 3 18 -13 16 -12 16 4 3 17 -14 18 -16 2 -27z m-50 6
c10 -11 14 -20 9 -20 -5 0 -15 9 -22 20 -7 11 -11 20 -9 20 2 0 12 -9 22 -20z
m162 8 c4 -7 8 -23 8 -35 1 -17 -2 -20 -13 -11 -10 9 -11 13 0 19 15 10 3 25
-27 32 -18 4 -18 5 2 6 12 0 25 -5 30 -11z m-57 -23 c14 -19 14 -19 -2 -6 -10
7 -18 18 -18 24 0 6 1 8 3 6 1 -2 9 -13 17 -24z m122 18 c-10 -4 -9 -9 4 -24
22 -25 10 -25 -15 0 -19 19 -14 29 14 29 6 0 4 -2 -3 -5z m-291 -20 c13 -16
12 -17 -3 -4 -10 7 -18 15 -18 17 0 8 8 3 21 -13z m-60 -10 c13 -17 13 -17 -6
-3 -11 8 -22 16 -24 17 -2 2 0 3 6 3 6 0 17 -8 24 -17z m443 -4 c-3 -5 -12 -9
-20 -9 -8 0 -14 -5 -14 -11 0 -8 -5 -7 -16 2 -14 12 -14 14 1 25 17 13 58 7
49 -7z m-504 -14 c14 -19 14 -19 -2 -6 -10 7 -18 18 -18 24 0 6 1 8 3 6 1 -2
9 -13 17 -24z m184 -14 c-6 -6 -34 20 -34 32 0 6 8 2 19 -9 10 -10 17 -21 15
-23z m111 9 c10 -11 15 -20 12 -20 -4 0 -16 9 -27 20 -11 11 -16 20 -12 20 5
0 17 -9 27 -20z m-194 3 c8 -54 7 -62 -6 -50 -9 8 -9 14 -2 19 7 4 7 11 -2 22
-9 11 -10 16 -2 16 6 0 12 -3 12 -7z m-56 -23 c10 -11 14 -20 9 -20 -5 0 -15
9 -22 20 -7 11 -11 20 -9 20 2 0 12 -9 22 -20z m125 -5 c20 -24 6 -28 -15 -5
-10 11 -13 20 -8 20 6 0 16 -7 23 -15z m-189 -12 c13 -16 12 -17 -3 -4 -17 13
-22 21 -14 21 2 0 10 -8 17 -17z m-241 -28 c0 -5 -5 -3 -10 5 -5 8 -10 20 -10
25 0 6 5 3 10 -5 5 -8 10 -19 10 -25z m175 15 c10 -11 14 -20 9 -20 -5 0 -15
9 -22 20 -7 11 -11 20 -9 20 2 0 12 -9 22 -20z m130 -10 c10 -11 13 -20 7 -20
-6 0 -16 9 -22 20 -6 11 -9 20 -7 20 2 0 12 -9 22 -20z m-195 -5 c7 -9 8 -15
2 -15 -5 0 -12 7 -16 15 -3 8 -4 15 -2 15 2 0 9 -7 16 -15z m150 -38 c0 -3 -9
-3 -19 0 -12 3 -17 11 -14 19 3 8 0 14 -7 14 -6 0 -8 5 -5 10 6 9 45 -29 45
-43z m-84 14 l24 -19 -26 -6 c-15 -4 -29 -5 -32 -1 -3 3 3 5 14 5 17 1 17 2
-5 20 -30 26 -7 26 25 1z"/>
<path d="M6690 2769 c-69 -34 -165 -80 -215 -104 -49 -23 -292 -140 -540 -260
-915 -442 -849 -414 -991 -415 -94 0 -171 20 -284 76 -261 128 -1295 624
-1300 624 -4 0 -7 -13 -7 -30 0 -16 -7 -38 -17 -49 -16 -18 -15 -20 31 -54 26
-19 58 -46 71 -60 20 -21 30 -24 63 -20 67 9 179 -73 179 -132 0 -9 -12 -56
-26 -104 -25 -80 -26 -94 -19 -191 4 -58 8 -124 9 -148 l1 -43 559 -270 c614
-297 635 -305 782 -296 106 7 134 19 614 252 223 108 605 294 850 412 1019
493 963 464 981 510 13 34 -8 80 -49 105 -75 46 -522 258 -544 258 -13 0 -79
-28 -148 -61z"/>
<path d="M2720 2679 c-113 -55 -217 -112 -232 -126 -35 -34 -37 -81 -5 -117
19 -22 854 -436 879 -436 13 0 9 98 -7 175 -8 38 -15 85 -15 103 0 24 -15 55
-51 108 -50 72 -53 74 -71 57 -16 -14 -20 -15 -32 -2 -40 41 -133 163 -189
245 -34 51 -64 93 -67 93 -3 0 -97 -45 -210 -100z"/>
<path d="M3026 1533 c-55 -15 -496 -236 -528 -266 -49 -44 -52 -86 -9 -125 15
-15 223 -121 462 -236 239 -116 587 -284 774 -374 187 -90 419 -202 515 -249
601 -291 606 -293 752 -279 93 8 130 23 443 174 1472 710 1953 946 1974 966
29 29 32 73 7 110 -12 19 -93 64 -274 153 -214 105 -265 127 -302 127 -39 0
-158 -55 -875 -403 -523 -253 -852 -408 -890 -417 -33 -7 -89 -14 -125 -14
-130 0 -127 -1 -920 382 -951 460 -958 463 -1004 451z"/>
</g>
</svg>
